<?xml version="1.0" encoding="utf-8"?>
<!-- Generator: Adobe Illustrator 23.0.1, SVG Export Plug-In . SVG Version: 6.00 Build 0)  -->
<svg version="1.1" id="Layer_1" xmlns="http://www.w3.org/2000/svg" xmlns:xlink="http://www.w3.org/1999/xlink" x="0px" y="0px"
	 viewBox="0 0 236 129" style="enable-background:new 0 0 236 129;" xml:space="preserve">
<style type="text/css">
	.st0{enable-background:new    ;}
	.st1{fill:#E1E1E1;}
	.st2{fill:#C8BFB0;}
</style>
<g class="st0">
	<path class="st1" d="M87.5,66.9c-3.9,0-6.8-1.3-8.6-4c-1.8-2.6-2.8-6.3-2.8-11.1c0-4.8,0.9-8.4,2.8-11.1c1.8-2.6,4.7-4,8.6-4
		c3.9,0,6.8,1.3,8.6,4c1.8,2.6,2.8,6.3,2.8,11.1c0,4.8-0.9,8.4-2.8,11.1C94.3,65.5,91.4,66.9,87.5,66.9z M87.5,61.8
		c1.8,0,3-0.7,3.7-2c0.7-1.3,1-3.2,1-5.5v-5c0-2.3-0.3-4.2-1-5.5s-1.9-2-3.7-2c-1.8,0-3,0.7-3.7,2s-1,3.1-1,5.5v5.1
		c0,2.3,0.3,4.2,1,5.5C84.5,61.2,85.8,61.8,87.5,61.8z"/>
	<path class="st1" d="M105,66.4V44.9h6.2v3.9h0.2c0.3-0.6,0.6-1.2,0.9-1.7c0.4-0.5,0.8-1,1.3-1.4c0.5-0.4,1.1-0.7,1.8-1
		c0.7-0.2,1.5-0.4,2.3-0.4c1,0,2,0.2,2.8,0.5c0.9,0.3,1.6,0.9,2.2,1.6c0.6,0.7,1.1,1.5,1.4,2.5c0.3,1,0.5,2.2,0.5,3.5v13.9h-6.2
		V53.3c0-2.8-1.2-4.2-3.6-4.2c-0.5,0-0.9,0.1-1.4,0.2c-0.5,0.1-0.9,0.3-1.2,0.6c-0.4,0.3-0.6,0.6-0.9,1c-0.2,0.4-0.3,0.8-0.3,1.4
		v14.1L105,66.4L105,66.4z"/>
	<path class="st1" d="M145.9,62.4h-0.3c-0.6,1.3-1.3,2.4-2.3,3.2c-1,0.8-2.3,1.2-4.1,1.2c-1.2,0-2.3-0.2-3.3-0.7
		c-1-0.4-1.8-1.1-2.5-2s-1.3-2.1-1.7-3.5c-0.4-1.4-0.6-3.1-0.6-5c0-1.9,0.2-3.6,0.6-5c0.4-1.4,1-2.6,1.7-3.5c0.7-0.9,1.6-1.6,2.5-2
		c1-0.4,2.1-0.7,3.3-0.7c0.9,0,1.6,0.1,2.3,0.3c0.7,0.2,1.3,0.5,1.8,0.9c0.5,0.4,1,0.9,1.3,1.4s0.7,1.1,1,1.8h0.3V35.5h6.2v30.8
		h-6.2C145.9,66.4,145.9,62.4,145.9,62.4z M141.9,62c1.1,0,2-0.3,2.8-0.8c0.8-0.5,1.2-1.4,1.2-2.5v-6.3c0-1.1-0.4-2-1.2-2.5
		c-0.8-0.5-1.7-0.8-2.8-0.8c-1.4,0-2.5,0.4-3.2,1.3c-0.7,0.8-1.1,2-1.1,3.5v3.3c0,1.5,0.4,2.7,1.1,3.5C139.4,61.6,140.5,62,141.9,62
		z"/>
	<path class="st1" d="M159.8,61.5h5V49.7h-5v-4.8h11.1v6.1h0.3c0.2-0.8,0.5-1.5,0.8-2.3c0.3-0.7,0.8-1.4,1.3-2c0.5-0.6,1.2-1,2-1.4
		c0.8-0.3,1.7-0.5,2.8-0.5h2v5.7h-4.6c-1.5,0-2.7,0.4-3.5,1.3c-0.8,0.9-1.2,2-1.2,3.3v6.4h7.1v4.8h-18.2V61.5z M167.7,42.3l-5.5-6.6
		l3.1-2.4l5,4.8l5-4.8l3,2.4l-5.5,6.6H167.7z"/>
	<path class="st1" d="M197,66.9c-3.6,0-6.3-1-8.2-3c-1.9-2-2.8-4.7-2.8-8.2c0-1.7,0.2-3.3,0.7-4.7c0.5-1.4,1.2-2.6,2.1-3.6
		c0.9-1,2-1.7,3.3-2.2c1.3-0.5,2.7-0.8,4.4-0.8c1.6,0,3.1,0.3,4.3,0.8c1.3,0.5,2.4,1.2,3.3,2.2c0.9,0.9,1.6,2.1,2.1,3.4
		c0.5,1.3,0.7,2.9,0.7,4.5v1.8h-14.7v0.4c0,1.4,0.4,2.5,1.3,3.4s2.1,1.3,3.8,1.3c1.3,0,2.4-0.2,3.3-0.7c0.9-0.5,1.7-1.1,2.4-1.9
		l3.3,3.6c-0.8,1-2,1.9-3.5,2.7C201.2,66.5,199.3,66.9,197,66.9z M196.5,48.8c-1.3,0-2.4,0.4-3.2,1.2c-0.8,0.8-1.2,1.9-1.2,3.3v0.3
		h8.7v-0.3c0-1.4-0.4-2.5-1.1-3.3C198.9,49.2,197.8,48.8,196.5,48.8z"/>
	<path class="st1" d="M215,69.9h8.3V49.7h-8.3v-4.8h14.5v23.6c0,1.8-0.5,3.3-1.6,4.5c-1.1,1.2-2.7,1.8-4.9,1.8H215L215,69.9
		L215,69.9z M226.3,42.1c-1.4,0-2.4-0.3-2.9-0.9c-0.5-0.6-0.8-1.3-0.8-2.1V38c0-0.8,0.3-1.5,0.8-2.1c0.5-0.6,1.5-0.8,2.9-0.8
		c1.4,0,2.3,0.3,2.9,0.8c0.6,0.6,0.8,1.3,0.8,2.1v1.2c0,0.8-0.3,1.5-0.8,2.1C228.6,41.8,227.7,42.1,226.3,42.1z"/>
</g>
<g class="st0">
	<path class="st1" d="M87.1,116.9c-2.4,0-4.6-0.4-6.4-1.2c-1.8-0.8-3.3-1.9-4.4-3.3l3.6-4c1.1,1.2,2.2,2,3.5,2.6
		c1.3,0.6,2.5,0.8,3.9,0.8c1.5,0,2.6-0.3,3.4-1c0.8-0.7,1.2-1.6,1.2-2.9c0-1-0.3-1.8-0.9-2.4c-0.6-0.5-1.6-0.9-3-1.1l-3-0.5
		c-2.6-0.4-4.5-1.4-5.7-2.9c-1.2-1.5-1.8-3.3-1.8-5.4c0-2.8,0.9-5,2.8-6.5c1.8-1.5,4.4-2.3,7.7-2.3c2.3,0,4.2,0.3,5.9,1
		c1.7,0.7,3,1.6,4,2.8l-3.5,4c-0.8-0.9-1.7-1.5-2.8-2c-1.1-0.5-2.3-0.7-3.6-0.7c-2.8,0-4.2,1.2-4.2,3.5c0,1,0.3,1.8,0.9,2.3
		c0.6,0.5,1.6,0.9,3.1,1.1l3,0.5c2.4,0.4,4.2,1.3,5.5,2.7c1.3,1.4,1.9,3.2,1.9,5.5c0,1.4-0.2,2.6-0.7,3.8c-0.5,1.2-1.2,2.2-2.1,3
		c-0.9,0.8-2.1,1.5-3.5,2C90.5,116.6,88.9,116.9,87.1,116.9z M85.2,85.2l-5.5-6.6l3.1-2.4l5,4.8l5-4.8l3,2.4l-5.5,6.6
		C90.3,85.2,85.2,85.2,85.2,85.2z"/>
	<path class="st1" d="M106.2,111.5h6.8V99.7h-6.8v-4.8h13v16.7h6.3v4.8h-19.3V111.5z M116.1,92.1c-1.4,0-2.4-0.3-2.9-0.9
		c-0.5-0.6-0.8-1.3-0.8-2.1V88c0-0.8,0.3-1.5,0.8-2.1c0.5-0.6,1.5-0.8,2.9-0.8c1.4,0,2.4,0.3,2.9,0.8c0.5,0.6,0.8,1.3,0.8,2.1v1.2
		c0,0.8-0.3,1.5-0.8,2.1C118.5,91.8,117.5,92.1,116.1,92.1z"/>
	<path class="st1" d="M132.2,85.5h6.2V103h0.3l2.9-3.4l4.5-4.8h7.1l-8.3,8.5l9.2,13h-7.3l-6.3-9.5l-2,2v7.5h-6.2L132.2,85.5
		L132.2,85.5z"/>
	<path class="st1" d="M177,116.4c-1.3,0-2.3-0.3-3.1-1c-0.8-0.7-1.2-1.6-1.4-2.8h-0.2c-0.4,1.4-1.2,2.5-2.3,3.2
		c-1.2,0.7-2.6,1.1-4.2,1.1c-2.1,0-3.8-0.6-5-1.7c-1.3-1.1-1.9-2.7-1.9-4.7c0-2.2,0.8-3.9,2.5-5c1.6-1.1,4-1.6,7.2-1.6h3.5v-1.1
		c0-1.3-0.3-2.2-0.9-2.9c-0.6-0.7-1.6-1-3-1c-1.3,0-2.4,0.3-3.2,0.8c-0.8,0.5-1.5,1.2-2.1,2l-3.4-3c0.7-1.2,1.9-2.2,3.4-3
		c1.5-0.8,3.5-1.2,5.9-1.2c2.9,0,5.2,0.7,6.9,2c1.7,1.3,2.5,3.4,2.5,6.1v9.4h2.4v4.5L177,116.4L177,116.4z M168.1,112.8
		c1.1,0,2-0.3,2.8-0.8c0.7-0.5,1.1-1.3,1.1-2.3v-2.6h-3.3c-2.5,0-3.8,0.8-3.8,2.5v0.8c0,0.8,0.3,1.3,0.9,1.7
		C166.4,112.6,167.1,112.8,168.1,112.8z"/>
</g>
<g>
	<path class="st2" d="M44.3,63.3c0.6,0.5,1.1,1,1.6,1.4c0.2,0.2,0.5,0.4,0.7,0.6c0.7,0.7,1.5,1.3,2.2,2c0.8,0.8,1.7,1.5,2.5,2.3
		c0.6,0.5,1.2,1.1,1.8,1.6c0.9,0.8,1.8,1.6,2.7,2.4c0,0,0.1,0.1,0.1,0.2c0,0.4-0.1,0.9-0.1,1.3c-0.1,0.5-0.1,0.9-0.2,1.4
		c-0.1,0.7-0.2,1.5-0.2,2.2c0,0.5-0.1,1-0.1,1.5c0,0.4-0.1,0.9-0.1,1.3c0,0.1-0.2,0.2-0.2,0.2c-0.6,0-1.2-0.1-1.8-0.2
		c-0.3,0-0.6,0-0.9-0.1c-0.7,0-1.3-0.1-2-0.1c-0.9-0.1-1.9-0.1-2.8-0.2c-0.2,0-0.4-0.2-0.6-0.4c-0.9-0.8-1.9-1.7-2.8-2.5
		c-0.8-0.7-1.6-1.4-2.4-2.1c-0.8-0.7-1.6-1.4-2.4-2.2s-1.6-1.5-2.4-2.2c-0.3-0.3-0.6-0.5-0.9-0.8c-3,2.7-6,5.4-9,8.1
		c0.2-2.7,0.4-5.3,0.6-8c-2.5-0.3-5-0.5-7.6-0.8c2.5-2.3,5-4.6,7.6-6.9c-0.4-0.3-0.7-0.7-1.1-1c-0.3-0.2-0.6-0.5-0.8-0.7
		c-0.7-0.7-1.5-1.3-2.2-2c-0.8-0.7-1.6-1.4-2.4-2.1c-0.8-0.7-1.7-1.5-2.5-2.2c-0.8-0.7-1.6-1.4-2.4-2.1c0,0-0.1-0.1-0.2-0.2
		c0.7,0,1.3,0.1,2,0.1c0.1,0,0.1,0,0.2,0c0.7,0,1.4,0,2.1,0.1c0.8,0,1.7,0.1,2.5,0.1c0.3,0,0.6,0,1,0.1c0.2-2.7,0.4-5.3,0.6-7.9
		c0.2,0.2,0.4,0.3,0.5,0.4c0.8,0.7,1.5,1.4,2.2,2c0.8,0.7,1.7,1.5,2.5,2.2c0.8,0.7,1.7,1.5,2.5,2.2c0.8,0.7,1.7,1.5,2.5,2.2
		c0.4,0.4,0.9,0.7,1.3,1.1c0.5-0.4,0.9-0.9,1.4-1.3c2.4-2.2,4.7-4.3,7.1-6.5c0.1-0.1,0.3-0.2,0.4-0.2c2.4,0.1,4.9,0.3,7.3,0.5
		c0.2,0,0.4,0,0.7,0.1c0,0.6-0.1,1.2-0.1,1.9c-0.1,1.8-0.3,3.6-0.4,5.5c0,0.3-0.1,0.6-0.4,0.8c-2.4,2.2-4.8,4.3-7.2,6.5
		C44.6,63.1,44.4,63.2,44.3,63.3z"/>
	<path class="st2" d="M47.4,103.9c-0.1,0.9-0.1,1.8-0.2,2.6c0,0.1,0,0.2,0,0.3c0,1-0.1,1.9-0.1,2.9c0,0.7-0.1,1.4-0.1,2.2
		c0,0.1,0,0.3-0.1,0.4c0.6,0,1.2,0.1,1.7,0.1c1,0.1,2.1,0.2,3.1,0.2c0.3,0,0.7,0,1,0.1c0.5,0,0.9,0,1.5,0.1
		c-0.2,0.2-0.4,0.5-0.6,0.6c-1.1,0.8-2.1,1.7-3.3,2.4c-1.3,0.9-2.6,1.6-4,2.2c-1.6,0.7-3.3,1.3-5,1.7c-0.9,0.2-1.8,0.3-2.7,0.5
		c-1.6,0.3-3.2,0.3-4.9,0.3c-1.3,0-2.5-0.2-3.7-0.4c-1.5-0.3-2.9-0.7-4.2-1.3c-1.1-0.5-2.2-1.1-3.3-1.7c-1-0.6-2-1.4-3-2.2
		c-0.9-0.8-1.7-1.7-2.6-2.6c-0.2-0.2-0.4-0.4-0.5-0.7c-0.1-0.1-0.2-0.3-0.1-0.5c0.1-0.8,0.1-1.6,0.2-2.3c0-0.5,0.1-1.1,0.1-1.6
		c0.1-0.8,0.2-1.7,0.2-2.5c0-0.4,0-0.7,0.1-1.1c0-0.2,0-0.2,0.2-0.2c0.5,0.1,1.1,0.1,1.6,0.1c0.8,0.1,1.5,0.2,2.3,0.2
		c0.5,0,1,0.1,1.5,0.1c0.8,0.1,1.5,0.1,2.3,0.2c0.1,0,0.2,0.1,0.3,0.2c0.8,1.2,1.9,2,3.1,2.7c1.2,0.7,2.4,1.2,3.8,1.5
		c0.8,0.2,1.6,0.3,2.4,0.4c0.7,0.1,1.4,0.1,2.1,0.1c1-0.1,2-0.2,3-0.4c1.3-0.2,2.5-0.7,3.6-1.3c1-0.5,2-1.2,2.8-1.9
		c0.4-0.4,0.8-0.8,1.2-1.2C47.2,104.1,47.3,104,47.4,103.9z"/>
	<path class="st2" d="M25.9,72.3c0,0.3,0,0.6,0,0.9c0,0.3-0.1,0.6-0.1,0.9c-0.1,0.9-0.2,1.8-0.2,2.8c0,0.6-0.1,1.2-0.1,1.8
		c0,0.6-0.1,1.3-0.2,1.9c0,0.1-0.1,0.1-0.1,0.2c-0.9,1-1.8,2.1-2.3,3.3c-0.5,1-1,1.9-1.3,2.9c-0.3,1.1-0.5,2.2-0.7,3.3
		c-0.1,0.8-0.2,1.7-0.2,2.5c0,2.1,0.5,4.1,1.3,6.1c0.5,1.2,1.1,2.4,1.9,3.5c0,0,0,0.1,0.1,0.2c-2.7-0.2-5.3-0.4-8-0.7
		c-0.2,2.6-0.4,5.2-0.6,7.7c0,0-0.1,0-0.1,0c-0.2-0.3-0.5-0.6-0.7-0.9c-0.6-1.1-1.2-2.1-1.8-3.2c-0.9-1.8-1.5-3.6-2-5.6
		c-0.3-1.1-0.5-2.3-0.7-3.4c-0.1-0.7-0.2-1.4-0.2-2.1c-0.1-0.9-0.1-1.9-0.1-2.8c0-1.2,0.1-2.4,0.2-3.6c0.1-1.7,0.6-3.3,1.1-4.9
		c0.6-1.9,1.5-3.6,2.5-5.3c0.7-1.2,1.5-2.4,2.4-3.4c0.7-0.8,1.4-1.5,2.1-2.3c0.2-0.2,0.5-0.4,0.9-0.2c0.3,0.1,0.6,0.1,0.8,0.1
		c0.9,0.1,1.7,0.1,2.6,0.2c1,0.1,1.9,0.1,2.9,0.2C25.5,72.2,25.7,72.2,25.9,72.3z"/>
	<path class="st2" d="M55.3,15.1c-1-0.1-2-0.1-2.9-0.2c-1.4-0.1-2.8-0.1-4.2-0.2c-0.2,0-0.3,0.1-0.3,0.3c-0.1,2.2-0.3,4.4-0.4,6.6
		c0,0.3,0,0.6-0.1,1c-0.1-0.1-0.1-0.1-0.2-0.1c-2.4-2.4-5.1-4.1-8.4-4.8c-4.1-0.8-8.1-0.1-11.6,2.3c-0.5,0.4-1,0.5-1.6,0.4
		c-1.9-0.2-3.9-0.3-5.8-0.4c-0.2,0-0.4,0-0.7-0.1c0-0.8,0.1-1.5,0.1-2.2c0.1-1.8,0.2-3.7,0.4-5.5c0-0.2,0.1-0.4,0.2-0.5
		c1.7-1.7,3.7-2.9,5.9-3.8c2.7-1.1,5.5-1.7,8.4-1.9c2.8-0.2,5.6,0,8.4,0.7c4.9,1.3,9.1,3.8,12.3,7.7C55,14.7,55.2,14.8,55.3,15.1z"
		/>
	<path class="st2" d="M18,13.5c-0.2,2.7-0.3,5.2-0.5,7.9c2.5,0.2,5,0.4,7.5,0.6c-0.2,0.3-0.5,0.6-0.7,0.8c-1.9,2.5-3.3,5.2-3.9,8.3
		c-0.6,3.5-0.2,6.9,1.2,10.1c0.4,0.8,0.8,1.6,1.2,2.4c0.1,0.1,0.1,0.2,0.1,0.4c-0.2,2.6-0.4,5.1-0.6,7.7c0,0,0,0.1,0,0.1
		c-0.3,0-0.6,0-1,0c-2-0.1-4.1-0.2-6.1-0.3c-0.3,0-0.4-0.1-0.6-0.3c-1.4-1.8-2.5-3.8-3.4-6c-1.2-3-1.8-6.1-1.9-9.3
		c-0.3-7.1,1.6-13.6,5.9-19.3c0.8-1.1,1.7-2,2.6-3C17.9,13.6,17.9,13.6,18,13.5z"/>
	<path class="st2" d="M54,54.4c0.2-2.6,0.3-5.1,0.5-7.6c-2.6-0.2-5.2-0.4-7.8-0.6c0.3-0.3,0.6-0.6,0.9-0.9c2.4-2.8,3.8-6.1,4.1-9.8
		c0.2-2.2-0.2-4.4-0.9-6.4c-0.5-1.5-1.1-2.9-1.9-4.3c-0.1-0.1-0.1-0.3-0.1-0.4c0.1-1.7,0.2-3.4,0.3-5.2c0-0.8,0.1-1.6,0.1-2.5
		c0-0.2,0.1-0.3,0.3-0.3c2.3,0.1,4.5,0.3,6.8,0.4c0.1,0,0.2,0.1,0.3,0.2c1.2,1.6,2.2,3.4,3,5.3c1.6,3.6,2.4,7.4,2.6,11.3
		c0.3,5.7-1.2,11-4.2,15.8c-1.1,1.7-2.3,3.3-3.8,4.8C54.2,54.2,54.2,54.3,54,54.4z"/>
	<path class="st2" d="M48.1,111.1c0-0.7,0.1-1.3,0.1-2c0-0.4,0.1-0.8,0.1-1.1c0-0.5,0-1,0.1-1.5c0.1-1.1,0.1-2.3,0.2-3.4
		c0-0.1,0.1-0.3,0.2-0.4c1.5-1.6,2.3-3.5,2.8-5.6c0.2-0.9,0.4-1.9,0.4-2.9c0-0.9,0.1-1.7,0-2.6c-0.1-1.5-0.3-3-0.8-4.4
		c-0.4-1.3-0.9-2.6-1.7-3.7c-0.2-0.3-0.5-0.6-0.7-1c0,0,0.1,0,0.1,0c0.7,0.1,1.4,0.1,2.1,0.2c0.3,0,0.6,0,0.9,0.1
		c0.7,0,1.4,0.1,2.1,0.1c0.6,0,1.3,0.1,1.9,0.2c0.4,0,0.4,0,0.4-0.4c0.1-0.7,0.1-1.4,0.2-2.2c0-0.5,0.1-1,0.1-1.5
		c0.1-0.7,0.2-1.5,0.2-2.2c0-0.5,0.1-1.1,0.1-1.7c0.2,0.2,0.3,0.4,0.4,0.6c0.5,0.9,1.1,1.8,1.5,2.8c0.5,1.1,1,2.3,1.5,3.5
		c0.4,1.2,0.8,2.4,1.1,3.6c0.2,0.9,0.4,1.8,0.5,2.8c0.2,1,0.3,2,0.4,3.1c0,0,0,0.1,0,0.1c0,0.9,0.1,1.7,0.1,2.6
		c0,1.1-0.1,2.2-0.2,3.3c-0.1,1.4-0.3,2.7-0.7,4c-0.3,1.2-0.7,2.3-1.2,3.5c-0.5,1.3-1.2,2.6-2.1,3.8c-0.4,0.6-0.9,1.2-1.4,1.7
		c-0.3,0.4-0.7,0.7-1,1.1c-0.2,0.2-0.4,0.2-0.7,0.2c-0.3,0-0.7-0.1-1-0.1c-0.7,0-1.4-0.1-2.1-0.1c-0.9-0.1-1.7-0.1-2.6-0.2
		C49.1,111.2,48.7,111.2,48.1,111.1z"/>
</g>
</svg>
