<?xml version="1.0" encoding="utf-8"?>
<!-- Generator: Adobe Illustrator 16.0.0, SVG Export Plug-In . SVG Version: 6.00 Build 0)  -->
<!DOCTYPE svg PUBLIC "-//W3C//DTD SVG 1.1//EN" "http://www.w3.org/Graphics/SVG/1.1/DTD/svg11.dtd">
<svg version="1.1" id="Layer_1" xmlns="http://www.w3.org/2000/svg" xmlns:xlink="http://www.w3.org/1999/xlink" x="0px" y="0px"
	 width="236px" height="129px" viewBox="-43.877 -51.927 236 129" enable-background="new -43.877 -51.927 236 129"
	 xml:space="preserve">
<g enable-background="new    ">
	<path fill="#131480" d="M35.702-14.539c-3.507,0-6.093-1.189-7.758-3.569c-1.666-2.379-2.499-5.711-2.499-9.993
		c0-4.283,0.833-7.614,2.499-9.994c1.666-2.379,4.251-3.569,7.758-3.569c3.506,0,6.092,1.19,7.758,3.569
		c1.666,2.38,2.499,5.711,2.499,9.994c0,4.282-0.833,7.614-2.499,9.993C41.793-15.729,39.208-14.539,35.702-14.539z M35.702-19.085
		c1.603,0,2.711-0.595,3.325-1.785c0.614-1.189,0.92-2.849,0.92-4.978v-4.546c0-2.104-0.307-3.751-0.92-4.94
		s-1.722-1.785-3.325-1.785c-1.604,0-2.711,0.596-3.325,1.785s-0.92,2.836-0.92,4.94v4.583c0,2.104,0.307,3.751,0.92,4.94
		C32.99-19.68,34.098-19.085,35.702-19.085z"/>
	<path fill="#131480" d="M51.405-14.99v-19.386h5.561v3.531h0.225c0.226-0.551,0.501-1.064,0.827-1.54
		c0.325-0.476,0.72-0.896,1.184-1.259c0.463-0.362,1.001-0.651,1.615-0.864c0.614-0.212,1.309-0.319,2.085-0.319
		c0.926,0,1.778,0.157,2.555,0.47c0.776,0.313,1.44,0.783,1.991,1.409c0.55,0.626,0.982,1.39,1.296,2.291
		c0.313,0.902,0.47,1.941,0.47,3.119v12.548h-5.56v-11.797c0-2.504-1.09-3.757-3.269-3.757c-0.426,0-0.846,0.057-1.259,0.169
		s-0.783,0.288-1.108,0.526c-0.326,0.238-0.582,0.532-0.77,0.883s-0.282,0.764-0.282,1.239v12.736H51.405z"/>
	<path fill="#131480" d="M88.261-18.557h-0.263c-0.501,1.188-1.196,2.154-2.085,2.899c-0.89,0.745-2.11,1.118-3.663,1.118
		c-1.077,0-2.061-0.201-2.949-0.602c-0.89-0.4-1.653-1.015-2.292-1.841s-1.14-1.879-1.503-3.156
		c-0.363-1.277-0.544-2.792-0.544-4.546c0-1.753,0.181-3.269,0.544-4.546c0.363-1.277,0.864-2.329,1.503-3.155
		c0.639-0.827,1.402-1.44,2.292-1.841c0.889-0.4,1.872-0.602,2.949-0.602c0.776,0,1.465,0.102,2.066,0.304
		c0.602,0.202,1.133,0.48,1.597,0.834c0.463,0.353,0.864,0.776,1.202,1.269c0.338,0.493,0.632,1.029,0.883,1.611h0.263v-11.982
		h5.561v27.802h-5.561V-18.557z M84.654-18.897c0.977,0,1.822-0.236,2.536-0.709c0.713-0.473,1.07-1.22,1.07-2.239v-5.675
		c0-1.021-0.357-1.767-1.07-2.239c-0.714-0.473-1.56-0.709-2.536-0.709c-1.253,0-2.217,0.38-2.893,1.139s-1.014,1.811-1.014,3.154
		v2.985c0,1.345,0.338,2.396,1.014,3.154C82.438-19.276,83.401-18.897,84.654-18.897z"/>
	<path fill="#131480" d="M100.809-19.349h4.471v-10.67h-4.471v-4.357h10.031v5.485h0.263c0.175-0.701,0.419-1.384,0.732-2.048
		c0.313-0.663,0.714-1.252,1.203-1.766c0.488-0.514,1.083-0.921,1.784-1.222c0.701-0.3,1.528-0.45,2.48-0.45h1.841v5.109h-4.133
		c-1.378,0-2.417,0.405-3.118,1.216c-0.702,0.812-1.052,1.803-1.052,2.976v5.727h6.387v4.358h-16.418V-19.349z M107.909-36.705
		l-4.959-5.974l2.818-2.18l4.546,4.321l4.546-4.321l2.667,2.18l-4.959,5.974H107.909z"/>
	<path fill="#131480" d="M134.358-14.539c-3.257,0-5.724-0.902-7.401-2.705c-1.678-1.804-2.517-4.258-2.517-7.364
		c0-1.577,0.219-2.999,0.658-4.264c0.438-1.265,1.064-2.342,1.879-3.231c0.813-0.889,1.803-1.564,2.967-2.028
		c1.165-0.463,2.474-0.695,3.927-0.695c1.452,0,2.755,0.232,3.907,0.695c1.151,0.464,2.129,1.121,2.93,1.973
		c0.802,0.852,1.422,1.885,1.86,3.1s0.657,2.573,0.657,4.076v1.652h-13.262v0.339c0,1.252,0.388,2.261,1.164,3.024
		s1.916,1.146,3.42,1.146c1.15,0,2.141-0.219,2.967-0.657c0.827-0.438,1.541-1.021,2.143-1.747l3.005,3.269
		c-0.751,0.927-1.804,1.728-3.155,2.404C138.152-14.878,136.437-14.539,134.358-14.539z M133.908-30.845
		c-1.203,0-2.161,0.37-2.875,1.108c-0.713,0.739-1.07,1.734-1.07,2.986v0.301h7.814v-0.301c0-1.277-0.345-2.278-1.033-3.005
		C136.054-30.481,135.109-30.845,133.908-30.845z"/>
	<path fill="#131480" d="M150.55-11.834h7.438v-18.185h-7.514v-4.357h13.074v21.302c0,1.628-0.488,2.968-1.466,4.02
		c-0.977,1.053-2.455,1.578-4.433,1.578h-7.101V-11.834z M160.769-36.855c-1.252,0-2.123-0.257-2.611-0.771
		c-0.488-0.513-0.732-1.133-0.732-1.859v-1.09c0-0.751,0.244-1.377,0.732-1.878s1.359-0.752,2.611-0.752
		c1.227,0,2.091,0.251,2.592,0.752c0.502,0.501,0.752,1.127,0.752,1.878v1.09c0,0.727-0.25,1.347-0.752,1.859
		C162.86-37.112,161.996-36.855,160.769-36.855z"/>
</g>
<g enable-background="new    ">
	<path fill="#131480" d="M35.288,30.543c-2.204,0-4.12-0.36-5.748-1.081c-1.628-0.721-2.943-1.701-3.945-2.943l3.269-3.603
		c0.952,1.052,1.997,1.828,3.137,2.329c1.139,0.502,2.297,0.752,3.475,0.752c1.353,0,2.379-0.304,3.081-0.909
		c0.701-0.606,1.052-1.478,1.052-2.615c0-0.935-0.27-1.642-0.808-2.122c-0.539-0.48-1.447-0.821-2.724-1.023l-2.743-0.45
		c-2.354-0.4-4.057-1.27-5.109-2.607c-1.052-1.339-1.578-2.971-1.578-4.897c0-2.526,0.826-4.483,2.479-5.872
		c1.653-1.388,3.969-2.083,6.95-2.083c2.029,0,3.794,0.311,5.297,0.932s2.717,1.466,3.645,2.534l-3.194,3.561
		c-0.701-0.776-1.528-1.384-2.479-1.822c-0.952-0.438-2.029-0.658-3.231-0.658c-2.53,0-3.794,1.05-3.794,3.146
		c0,0.91,0.282,1.593,0.845,2.048s1.484,0.796,2.761,1.023l2.743,0.488c2.128,0.376,3.77,1.177,4.922,2.402
		c1.151,1.226,1.728,2.877,1.728,4.953c0,1.226-0.213,2.358-0.639,3.396c-0.426,1.039-1.065,1.939-1.916,2.702
		c-0.852,0.764-1.897,1.357-3.137,1.782S36.941,30.543,35.288,30.543z M33.56,1.989l-4.959-5.973l2.817-2.18l4.546,4.32l4.546-4.32
		l2.667,2.18l-4.959,5.973H33.56z"/>
	<path fill="#131480" d="M52.495,25.733h6.161v-10.67h-6.161v-4.357h11.722v15.027h5.71v4.358H52.495V25.733z M61.437,8.227
		c-1.253,0-2.123-0.257-2.611-0.771c-0.488-0.513-0.732-1.133-0.732-1.859v-1.09c0-0.751,0.244-1.377,0.732-1.878
		c0.489-0.501,1.358-0.752,2.611-0.752c1.252,0,2.123,0.251,2.611,0.752c0.489,0.501,0.733,1.127,0.733,1.878v1.09
		c0,0.727-0.244,1.347-0.733,1.859C63.559,7.97,62.688,8.227,61.437,8.227z"/>
	<path fill="#131480" d="M75.938,2.29h5.561v15.779h0.263l2.592-3.043l4.058-4.32h6.387l-7.514,7.664l8.303,11.722h-6.612
		l-5.635-8.565l-1.841,1.841v6.725h-5.561V2.29z"/>
	<path fill="#131480" d="M116.325,30.092c-1.152,0-2.079-0.294-2.78-0.883c-0.701-0.588-1.115-1.434-1.24-2.536h-0.188
		c-0.351,1.277-1.046,2.242-2.085,2.893c-1.04,0.651-2.311,0.978-3.813,0.978c-1.878,0-3.388-0.508-4.527-1.521
		c-1.14-1.015-1.709-2.436-1.709-4.265c0-2.028,0.738-3.531,2.217-4.508c1.478-0.978,3.644-1.466,6.5-1.466h3.118v-0.977
		c0-1.151-0.27-2.022-0.808-2.611c-0.539-0.588-1.447-0.883-2.724-0.883c-1.177,0-2.129,0.226-2.855,0.677
		c-0.727,0.45-1.353,1.039-1.878,1.766l-3.043-2.705c0.651-1.103,1.672-2.01,3.062-2.724s3.175-1.071,5.354-1.071
		c2.655,0,4.728,0.607,6.218,1.822s2.235,3.05,2.235,5.504v8.491h2.142v4.02H116.325z M108.322,26.898
		c0.977,0,1.803-0.238,2.479-0.714s1.015-1.165,1.015-2.066v-2.329h-2.968c-2.279,0-3.418,0.764-3.418,2.292v0.751
		c0,0.677,0.263,1.189,0.789,1.54C106.745,26.724,107.445,26.898,108.322,26.898z"/>
</g>
<g>
	<path fill="#131480" d="M-3.012,5.698c0.541,0.475,1.006,0.883,1.471,1.292c0.216,0.19,0.432,0.381,0.645,0.574
		c0.667,0.606,1.333,1.215,2.003,1.818c0.756,0.68,1.517,1.356,2.275,2.033c0.536,0.48,1.075,0.958,1.614,1.437
		c0.816,0.72,1.632,1.438,2.446,2.162c0.042,0.036,0.085,0.104,0.082,0.153c-0.028,0.385-0.063,0.767-0.104,1.148
		c-0.046,0.427-0.104,0.853-0.151,1.278c-0.072,0.666-0.14,1.335-0.204,2c-0.042,0.438-0.07,0.878-0.106,1.314
		c-0.034,0.402-0.062,0.808-0.113,1.205c-0.006,0.057-0.137,0.146-0.204,0.142c-0.545-0.039-1.088-0.096-1.633-0.145
		c-0.259-0.021-0.521-0.04-0.78-0.053c-0.593-0.035-1.187-0.061-1.778-0.103c-0.84-0.063-1.682-0.115-2.518-0.219
		c-0.185-0.021-0.357-0.218-0.514-0.358c-0.841-0.749-1.672-1.508-2.51-2.263c-0.724-0.647-1.452-1.292-2.178-1.938
		c-0.733-0.651-1.466-1.305-2.198-1.957c-0.732-0.652-1.464-1.308-2.198-1.957c-0.276-0.245-0.56-0.479-0.854-0.732
		c-2.684,2.418-5.367,4.835-8.116,7.312c0.176-2.43,0.348-4.791,0.522-7.18c-2.262-0.228-4.505-0.453-6.82-0.688
		c2.297-2.088,4.544-4.132,6.822-6.203c-0.329-0.305-0.64-0.603-0.958-0.889c-0.241-0.214-0.498-0.411-0.737-0.627
		c-0.659-0.59-1.308-1.188-1.966-1.778c-0.723-0.649-1.451-1.292-2.177-1.938c-0.746-0.664-1.492-1.33-2.237-1.995
		c-0.712-0.635-1.426-1.268-2.137-1.9c-0.039-0.035-0.071-0.075-0.153-0.163c0.634,0.03,1.204,0.058,1.775,0.086
		c0.054,0.002,0.106,0.021,0.16,0.022c0.623,0.015,1.247,0.024,1.871,0.047c0.748,0.025,1.495,0.06,2.242,0.096
		c0.293,0.015,0.585,0.044,0.894,0.069c0.172-2.398,0.342-4.749,0.516-7.151c0.195,0.154,0.352,0.266,0.494,0.395
		c0.677,0.608,1.347,1.226,2.022,1.834c0.75,0.676,1.504,1.345,2.256,2.017c0.745,0.666,1.49,1.332,2.236,1.996
		c0.752,0.672,1.502,1.346,2.256,2.015c0.382,0.339,0.771,0.671,1.174,1.021c0.427-0.388,0.849-0.769,1.271-1.151
		c2.137-1.941,4.271-3.887,6.416-5.822c0.096-0.089,0.269-0.146,0.4-0.138c2.194,0.131,4.387,0.275,6.58,0.417
		c0.19,0.012,0.379,0.03,0.602,0.047C4.647-7.155,4.608-6.597,4.563-6.039c-0.129,1.64-0.269,3.276-0.388,4.916
		C4.153-0.815,4.063-0.594,3.823-0.379c-2.176,1.94-4.339,3.896-6.506,5.847C-2.776,5.553-2.89,5.614-3.012,5.698z"/>
	<path fill="#131480" d="M-0.238,42.308c-0.052,0.838-0.098,1.6-0.144,2.357c-0.005,0.081-0.001,0.164-0.004,0.245
		c-0.03,0.874-0.06,1.749-0.097,2.624c-0.027,0.646-0.063,1.294-0.098,1.942c-0.008,0.13-0.033,0.258-0.053,0.403
		c0.539,0.041,1.057,0.077,1.577,0.113c0.939,0.067,1.879,0.14,2.82,0.201c0.314,0.021,0.628,0.035,0.943,0.053
		c0.413,0.021,0.827,0.042,1.323,0.067c-0.216,0.218-0.375,0.423-0.576,0.574c-0.97,0.741-1.925,1.507-2.935,2.19
		c-1.143,0.775-2.371,1.402-3.639,1.959c-1.453,0.639-2.945,1.146-4.489,1.497c-0.788,0.178-1.59,0.293-2.389,0.431
		c-1.457,0.251-2.929,0.271-4.397,0.232c-1.135-0.029-2.262-0.165-3.38-0.382c-1.314-0.26-2.592-0.637-3.81-1.173
		c-1.016-0.442-2.009-0.963-2.952-1.548c-0.937-0.581-1.843-1.231-2.677-1.946c-0.833-0.716-1.564-1.549-2.332-2.337
		c-0.181-0.186-0.349-0.388-0.493-0.603c-0.078-0.111-0.141-0.274-0.132-0.408c0.052-0.705,0.134-1.405,0.196-2.111
		c0.042-0.481,0.065-0.968,0.107-1.451c0.063-0.751,0.137-1.498,0.2-2.248c0.027-0.322,0.039-0.646,0.054-0.97
		c0.006-0.14-0.002-0.22,0.211-0.186c0.469,0.072,0.947,0.076,1.421,0.119c0.677,0.063,1.353,0.14,2.03,0.201
		c0.455,0.042,0.912,0.066,1.369,0.108c0.686,0.063,1.371,0.129,2.054,0.208c0.087,0.01,0.19,0.082,0.242,0.158
		c0.729,1.04,1.682,1.824,2.769,2.463c1.061,0.622,2.192,1.067,3.386,1.336c0.702,0.158,1.418,0.269,2.133,0.352
		c0.615,0.071,1.241,0.134,1.856,0.093c0.917-0.063,1.837-0.17,2.738-0.346c1.146-0.224,2.231-0.651,3.264-1.201
		c0.915-0.489,1.785-1.045,2.558-1.74c0.375-0.341,0.731-0.7,1.097-1.051C-0.422,42.479-0.358,42.42-0.238,42.308z"/>
	<path fill="#131480" d="M-19.599,13.811c-0.012,0.281-0.016,0.564-0.039,0.848c-0.023,0.276-0.073,0.549-0.097,0.825
		c-0.072,0.831-0.141,1.663-0.204,2.494c-0.042,0.547-0.063,1.093-0.104,1.642c-0.044,0.573-0.101,1.143-0.157,1.712
		c-0.005,0.056-0.049,0.113-0.09,0.156c-0.833,0.893-1.579,1.853-2.118,2.95c-0.427,0.866-0.864,1.742-1.162,2.658
		c-0.308,0.95-0.491,1.944-0.659,2.933c-0.129,0.755-0.218,1.533-0.204,2.296c0.037,1.89,0.428,3.714,1.157,5.462
		c0.457,1.097,0.993,2.15,1.685,3.118c0.029,0.041,0.039,0.093,0.06,0.146c-2.392-0.2-4.771-0.402-7.167-0.606
		c-0.189,2.336-0.375,4.646-0.563,6.956c-0.023,0.009-0.047,0.017-0.07,0.028c-0.198-0.283-0.42-0.548-0.589-0.846
		c-0.545-0.96-1.115-1.908-1.599-2.9c-0.78-1.601-1.374-3.273-1.777-5.011c-0.237-1.021-0.438-2.051-0.612-3.086
		c-0.104-0.624-0.139-1.266-0.18-1.898c-0.054-0.839-0.129-1.677-0.114-2.515c0.021-1.095,0.098-2.191,0.194-3.282
		c0.134-1.513,0.512-2.974,0.998-4.411c0.571-1.684,1.331-3.277,2.253-4.797c0.658-1.085,1.367-2.133,2.203-3.088
		c0.611-0.698,1.243-1.38,1.876-2.061c0.202-0.217,0.438-0.33,0.767-0.223c0.232,0.077,0.499,0.049,0.749,0.066
		c0.781,0.052,1.561,0.096,2.34,0.152c0.877,0.063,1.753,0.132,2.63,0.204C-19.997,13.75-19.803,13.784-19.599,13.811z"/>
	<path fill="#131480" d="M6.91-37.754c-0.915-0.05-1.765-0.104-2.614-0.145c-1.251-0.061-2.504-0.107-3.754-0.17
		c-0.223-0.011-0.296,0.063-0.31,0.289c-0.116,1.993-0.242,3.986-0.365,5.979c-0.018,0.291-0.037,0.581-0.058,0.906
		c-0.062-0.05-0.107-0.082-0.146-0.122c-2.136-2.146-4.615-3.737-7.615-4.297c-3.74-0.698-7.29-0.126-10.469,2.079
		c-0.468,0.324-0.88,0.417-1.416,0.37c-1.737-0.15-3.476-0.262-5.215-0.387c-0.197-0.014-0.396-0.032-0.623-0.053
		c0.043-0.681,0.083-1.35,0.128-2.017c0.111-1.648,0.22-3.297,0.342-4.945c0.012-0.146,0.079-0.32,0.181-0.423
		c1.527-1.54,3.356-2.615,5.342-3.443c2.419-1.009,4.951-1.523,7.562-1.684c2.554-0.154,5.084-0.007,7.569,0.628
		c4.442,1.135,8.182,3.406,11.109,6.965C6.667-38.09,6.765-37.948,6.91-37.754z"/>
	<path fill="#131480" d="M-26.736-39.143c-0.149,2.389-0.293,4.722-0.441,7.082c2.257,0.175,4.489,0.349,6.763,0.526
		c-0.217,0.269-0.412,0.503-0.602,0.744c-1.75,2.212-3.004,4.66-3.515,7.458c-0.577,3.146-0.16,6.183,1.078,9.113
		c0.32,0.756,0.749,1.468,1.123,2.203c0.05,0.1,0.097,0.219,0.089,0.327c-0.161,2.309-0.33,4.618-0.498,6.926
		c-0.003,0.036-0.01,0.071-0.018,0.122c-0.29,0.002-0.575,0.016-0.862,0.003c-1.84-0.076-3.681-0.165-5.522-0.231
		c-0.25-0.009-0.4-0.106-0.545-0.287c-1.307-1.628-2.292-3.441-3.063-5.374c-1.075-2.699-1.647-5.504-1.755-8.404
		c-0.241-6.413,1.486-12.238,5.298-17.411c0.703-0.955,1.553-1.797,2.336-2.691C-26.846-39.063-26.814-39.08-26.736-39.143z"/>
	<path fill="#131480" d="M5.749-2.271c0.15-2.331,0.296-4.594,0.445-6.894C3.836-9.352,1.5-9.537-0.879-9.728
		c0.277-0.304,0.536-0.568,0.771-0.85c2.128-2.563,3.427-5.482,3.732-8.813c0.182-1.993-0.172-3.926-0.798-5.813
		c-0.447-1.349-1.02-2.64-1.721-3.873c-0.059-0.104-0.088-0.241-0.081-0.359c0.085-1.552,0.18-3.101,0.273-4.652
		c0.044-0.742,0.097-1.484,0.127-2.229c0.009-0.205,0.073-0.259,0.274-0.247c2.049,0.12,4.097,0.231,6.146,0.356
		c0.102,0.006,0.224,0.103,0.291,0.191c1.1,1.469,1.966,3.072,2.694,4.751c1.411,3.257,2.175,6.662,2.377,10.205
		c0.295,5.174-1.076,9.896-3.819,14.25C8.407-5.252,7.288-3.8,5.988-2.494C5.924-2.431,5.858-2.372,5.749-2.271z"/>
	<path fill="#131480" d="M0.431,48.828c0.037-0.604,0.073-1.204,0.109-1.804C0.56,46.684,0.586,46.342,0.601,46
		c0.02-0.457,0.028-0.92,0.049-1.378c0.047-1.026,0.093-2.054,0.153-3.078c0.007-0.113,0.063-0.247,0.142-0.331
		c1.335-1.45,2.078-3.195,2.548-5.077c0.213-0.853,0.355-1.713,0.371-2.595c0.014-0.768,0.081-1.538,0.031-2.306
		c-0.086-1.353-0.283-2.689-0.688-3.996c-0.369-1.188-0.85-2.319-1.568-3.341c-0.205-0.292-0.432-0.568-0.659-0.864
		c0.032-0.01,0.069-0.036,0.105-0.031c0.636,0.046,1.27,0.099,1.905,0.147c0.277,0.021,0.556,0.037,0.834,0.053
		c0.629,0.033,1.259,0.059,1.887,0.103c0.581,0.039,1.162,0.095,1.741,0.153c0.35,0.033,0.369,0,0.396-0.354
		c0.051-0.648,0.135-1.296,0.198-1.945c0.042-0.439,0.067-0.877,0.108-1.316c0.063-0.668,0.138-1.334,0.2-2.001
		c0.045-0.48,0.076-0.96,0.12-1.522c0.163,0.219,0.301,0.369,0.399,0.541c0.473,0.827,0.982,1.637,1.391,2.493
		c0.492,1.034,0.939,2.095,1.324,3.171c0.382,1.067,0.696,2.161,0.979,3.259c0.21,0.818,0.35,1.654,0.478,2.49
		c0.141,0.917,0.233,1.844,0.345,2.769c0.004,0.023,0.002,0.053,0.003,0.08c0.021,0.77,0.079,1.539,0.057,2.307
		c-0.029,0.988-0.124,1.972-0.192,2.958c-0.085,1.24-0.303,2.459-0.646,3.649c-0.306,1.063-0.669,2.113-1.074,3.144
		c-0.479,1.213-1.105,2.356-1.874,3.414c-0.394,0.539-0.812,1.065-1.246,1.576c-0.29,0.341-0.645,0.626-0.936,0.968
		c-0.185,0.213-0.4,0.184-0.619,0.169c-0.311-0.021-0.621-0.076-0.934-0.095C5.31,49.171,4.69,49.146,4.07,49.109
		c-0.771-0.049-1.543-0.099-2.314-0.154C1.338,48.921,0.918,48.875,0.431,48.828z"/>
</g>
<g>
	<g>
		<path fill="#808080" d="M28.163,49.014h1.407l3.682,10.577h0.094l3.659-10.577h1.36l-4.339,12.008h-1.524L28.163,49.014z"/>
		<path fill="#808080" d="M42.657,45.753c-0.313,0-0.543-0.078-0.692-0.234c-0.149-0.156-0.223-0.359-0.223-0.609v-0.234
			c0-0.25,0.074-0.454,0.223-0.61c0.148-0.156,0.379-0.234,0.692-0.234c0.313,0,0.543,0.078,0.692,0.234
			c0.148,0.156,0.223,0.36,0.223,0.61v0.234c0,0.25-0.074,0.453-0.223,0.609C43.2,45.675,42.969,45.753,42.657,45.753z M42,49.014
			h1.337v12.008H42V49.014z"/>
		<path fill="#808080" d="M52.085,61.304c-1.048,0-1.943-0.195-2.686-0.586c-0.743-0.391-1.388-0.962-1.935-1.712l0.985-0.774
			c0.5,0.656,1.047,1.142,1.642,1.454c0.594,0.313,1.29,0.469,2.087,0.469c0.922,0,1.634-0.195,2.134-0.586
			c0.5-0.391,0.75-0.953,0.75-1.688c0-0.642-0.191-1.146-0.575-1.513s-1.012-0.613-1.888-0.739l-0.985-0.164
			c-0.547-0.078-1.048-0.195-1.501-0.352c-0.454-0.156-0.841-0.367-1.161-0.634c-0.32-0.266-0.571-0.59-0.75-0.973
			s-0.27-0.849-0.27-1.396c0-0.563,0.105-1.056,0.316-1.478c0.211-0.423,0.497-0.774,0.856-1.056
			c0.359-0.281,0.789-0.492,1.29-0.633c0.5-0.142,1.04-0.212,1.619-0.212c1,0,1.821,0.173,2.462,0.517s1.188,0.789,1.642,1.337
			l-0.892,0.82c-0.313-0.375-0.731-0.723-1.254-1.043c-0.524-0.32-1.2-0.481-2.029-0.481c-0.86,0-1.529,0.188-2.005,0.563
			c-0.477,0.375-0.715,0.906-0.715,1.595c0,0.703,0.215,1.212,0.645,1.524c0.43,0.313,1.075,0.539,1.935,0.68l0.962,0.141
			c1.22,0.188,2.123,0.552,2.709,1.091c0.586,0.539,0.879,1.294,0.879,2.264c0,1.125-0.379,2.001-1.138,2.627
			C54.458,60.991,53.414,61.304,52.085,61.304z"/>
		<path fill="#808080" d="M68.362,59.123h-0.094c-0.109,0.281-0.258,0.555-0.445,0.82c-0.188,0.267-0.422,0.497-0.704,0.692
			c-0.282,0.195-0.614,0.355-0.997,0.481c-0.383,0.125-0.833,0.188-1.348,0.188c-1.282,0-2.283-0.395-3.002-1.185
			c-0.719-0.789-1.079-1.919-1.079-3.389v-7.716h1.337v7.458c0,1.235,0.266,2.149,0.797,2.744c0.531,0.594,1.297,0.891,2.298,0.891
			c0.422,0,0.825-0.055,1.208-0.164c0.383-0.109,0.727-0.273,1.032-0.492c0.305-0.219,0.547-0.496,0.727-0.833
			c0.18-0.336,0.27-0.73,0.27-1.185v-8.419h1.336v12.008h-1.336V59.123z"/>
		<path fill="#808080" d="M83.301,61.022c-0.516,0-0.892-0.133-1.126-0.398s-0.368-0.625-0.398-1.079v-0.422h-0.118
			c-0.266,0.672-0.704,1.204-1.313,1.595c-0.61,0.391-1.384,0.586-2.322,0.586c-1.267,0-2.244-0.31-2.932-0.929
			c-0.688-0.62-1.032-1.495-1.032-2.624c0-1.067,0.379-1.914,1.137-2.542c0.758-0.627,2.005-0.941,3.741-0.941h2.767V52.86
			c0-1.985-1.024-2.979-3.072-2.979c-0.797,0-1.462,0.168-1.994,0.505c-0.532,0.336-0.961,0.816-1.29,1.442l-0.844-0.699
			c0.329-0.698,0.833-1.272,1.513-1.722c0.68-0.45,1.567-0.676,2.662-0.676c1.407,0,2.486,0.353,3.237,1.058
			s1.125,1.692,1.125,2.962v7.121h1.619v1.149H83.301z M78.212,60.154c0.484,0,0.938-0.063,1.36-0.188
			c0.422-0.126,0.793-0.303,1.114-0.53c0.32-0.229,0.571-0.503,0.75-0.825s0.27-0.688,0.27-1.097v-2.238h-2.814
			c-1.204,0-2.075,0.192-2.615,0.577s-0.809,0.915-0.809,1.591v0.565c0,0.708,0.25,1.241,0.75,1.603
			C76.718,59.973,77.383,60.154,78.212,60.154z"/>
		<path fill="#808080" d="M89.868,61.022c-0.485,0-0.853-0.133-1.102-0.398c-0.25-0.266-0.375-0.618-0.375-1.056V43.667h1.337
			v16.206h1.853v1.149H89.868z"/>
		<path fill="#808080" d="M102.744,45.753c-0.313,0-0.543-0.078-0.692-0.234c-0.149-0.156-0.223-0.359-0.223-0.609v-0.234
			c0-0.25,0.074-0.454,0.223-0.61c0.148-0.156,0.379-0.234,0.692-0.234c0.313,0,0.543,0.078,0.692,0.234
			c0.148,0.156,0.223,0.36,0.223,0.61v0.234c0,0.25-0.074,0.453-0.223,0.609C103.287,45.675,103.056,45.753,102.744,45.753z
			 M102.087,49.014h1.337v12.008h-1.337V49.014z"/>
		<path fill="#808080" d="M116.534,59.099h-0.07c-0.313,0.672-0.771,1.207-1.372,1.606c-0.602,0.399-1.364,0.598-2.287,0.598
			c-1.548,0-2.76-0.547-3.635-1.642c-0.876-1.094-1.313-2.643-1.313-4.644c0-2.002,0.438-3.55,1.313-4.644
			c0.875-1.095,2.087-1.643,3.635-1.643c0.922,0,1.688,0.2,2.298,0.599s1.063,0.935,1.36,1.606h0.07v-7.271h1.337v17.355h-1.337
			V59.099z M113.11,60.107c0.469,0,0.911-0.062,1.325-0.188c0.414-0.125,0.778-0.309,1.091-0.551
			c0.313-0.242,0.559-0.531,0.739-0.868c0.179-0.336,0.27-0.715,0.27-1.138v-4.761c0-0.391-0.09-0.75-0.27-1.079
			c-0.18-0.328-0.426-0.609-0.739-0.844c-0.313-0.234-0.677-0.418-1.091-0.552c-0.415-0.133-0.856-0.199-1.325-0.199
			c-1.204,0-2.142,0.384-2.814,1.149c-0.672,0.767-1.008,1.798-1.008,3.096v1.688c0,1.299,0.336,2.33,1.008,3.097
			C110.968,59.724,111.906,60.107,113.11,60.107z"/>
		<path fill="#808080" d="M127.51,61.304c-0.798,0-1.521-0.141-2.169-0.422c-0.649-0.281-1.204-0.692-1.665-1.231
			c-0.461-0.539-0.813-1.2-1.056-1.981c-0.243-0.782-0.363-1.666-0.363-2.65c0-0.985,0.121-1.865,0.363-2.639
			c0.242-0.774,0.594-1.431,1.056-1.97c0.461-0.54,1.012-0.954,1.653-1.243s1.36-0.435,2.158-0.435c0.766,0,1.462,0.146,2.088,0.436
			c0.625,0.29,1.156,0.694,1.594,1.213c0.438,0.518,0.778,1.142,1.021,1.871c0.242,0.729,0.363,1.533,0.363,2.412v0.636h-8.889
			v0.586c0,0.626,0.09,1.2,0.27,1.725c0.18,0.523,0.438,0.973,0.774,1.349c0.336,0.375,0.747,0.668,1.231,0.879
			c0.484,0.211,1.031,0.316,1.642,0.316c1.751,0,2.963-0.805,3.635-2.415l0.986,0.652c-0.376,0.885-0.967,1.592-1.771,2.12
			S128.651,61.304,127.51,61.304z M127.487,49.881c-0.579,0-1.103,0.105-1.571,0.316c-0.469,0.212-0.872,0.505-1.208,0.88
			c-0.336,0.375-0.594,0.825-0.774,1.349c-0.18,0.524-0.27,1.099-0.27,1.724v0.117h7.434V54.08c0-0.625-0.086-1.199-0.258-1.724
			c-0.172-0.523-0.418-0.966-0.738-1.325s-0.703-0.641-1.149-0.845C128.507,49.983,128.018,49.881,127.487,49.881z"/>
		<path fill="#808080" d="M136.938,61.022V49.014h1.338v1.899h0.07c0.266-0.625,0.68-1.146,1.242-1.56
			c0.563-0.414,1.329-0.622,2.299-0.622c1.281,0,2.279,0.396,2.99,1.185c0.711,0.79,1.067,1.92,1.067,3.39v7.716h-1.337v-7.481
			c0-1.22-0.262-2.127-0.785-2.721c-0.524-0.594-1.287-0.892-2.287-0.892c-0.422,0-0.829,0.055-1.22,0.164
			c-0.392,0.11-0.739,0.274-1.044,0.493s-0.547,0.496-0.727,0.832c-0.18,0.337-0.27,0.724-0.27,1.161v8.443H136.938z"/>
		<path fill="#808080" d="M153.192,61.022c-0.484,0-0.853-0.133-1.103-0.399s-0.375-0.627-0.375-1.081v-9.379h-2.087v-1.148h1.359
			c0.328,0,0.552-0.066,0.669-0.2c0.117-0.132,0.176-0.371,0.176-0.715V45.66h1.22v3.354h2.721v1.148h-2.721v9.71h2.533v1.149
			H153.192z"/>
		<path fill="#808080" d="M160.626,45.753c-0.313,0-0.544-0.078-0.692-0.234s-0.223-0.359-0.223-0.609v-0.234
			c0-0.25,0.074-0.454,0.223-0.61s0.379-0.234,0.692-0.234c0.313,0,0.543,0.078,0.692,0.234c0.148,0.156,0.223,0.36,0.223,0.61
			v0.234c0,0.25-0.074,0.453-0.223,0.609C161.169,45.675,160.939,45.753,160.626,45.753z M159.969,49.014h1.338v12.008h-1.338
			V49.014z"/>
		<path fill="#808080" d="M168.717,61.022c-0.484,0-0.852-0.133-1.102-0.399s-0.375-0.627-0.375-1.081v-9.379h-2.088v-1.148h1.36
			c0.328,0,0.552-0.066,0.669-0.2c0.117-0.132,0.176-0.371,0.176-0.715V45.66h1.219v3.354h2.721v1.148h-2.721v9.71h2.533v1.149
			H168.717z"/>
		<path fill="#808080" d="M182.766,49.014h1.361l-5.559,15.385c-0.189,0.5-0.416,0.844-0.682,1.031s-0.703,0.281-1.313,0.281h-1.361
			v-1.148h2.018l1.148-3.172l-4.455-12.377h1.406l3.684,10.596h0.094L182.766,49.014z"/>
	</g>
</g>
</svg>
